<?xml version="1.0" encoding="utf-8"?>
<svg width="32px" height="32px" viewBox="0 0 32 32" fill="none" xmlns="http://www.w3.org/2000/svg">
  <g style="" transform="matrix(0.929924, 0, 0, 1.046165, 0, -9.640379)">
    <rect y="9.21497" width="34.4114" height="30.5879" rx="5.29407" fill="#FF7A00"/>
    <path d="M9.26459 32.8737H4.8811V16.1444H9.26459V18.0503H7.01991V30.9678H9.26459V32.8737Z" fill="#0A0A0A"/>
    <path fill-rule="evenodd" clip-rule="evenodd" d="M24.1315 24.5299C23.46 25.2576 23.3025 27.4024 23.3025 27.4024L11.6761 27.4425C11.6761 27.4425 11.3162 25.2319 10.6093 24.4624L11.3355 23.6736L9.26465 20.0107L10.8471 19.3488L11.0238 20.8059L12.1869 20.0525L12.7428 21.5867L11.6873 21.7811C13.5155 23.5386 15.6619 23.5483 16.5744 20.8879L15.4032 21.0839V19.5319L16.5856 19.7601L16.245 18.5857L18.401 18.605L18.062 19.7295L19.3762 19.4404L19.3489 21.1481L18.0395 20.912C18.8942 23.6527 20.8156 23.7218 22.8993 21.7859L21.8181 21.5915L22.374 20.0573L23.5805 20.8188L23.5275 19.1624L25.1468 19.8902L23.3797 23.8551L24.1315 24.5299ZM23.4873 28.4129C24.1203 29.3045 23.7733 30.4323 22.2294 30.4323C19.9802 30.4323 14.571 30.3327 12.4006 30.3327C10.9885 30.3327 10.7828 28.7775 11.5588 28.2297L23.4873 28.4129Z" fill="#0A0A0A"/>
    <path d="M25.1469 30.9678H27.3915V18.0503H25.1469V16.1444H29.5303V32.8737H25.1469V30.9678Z" fill="#0A0A0A"/>
  </g>
</svg>